<svg xmlns="http://www.w3.org/2000/svg">
  <symbol id="close" viewBox="0 0 15.44 15">
    <path d="M.58.782l.7-.707 14.14 14.143-.7.707zM14.99.726l-.72-.713L.01 14.274l.72.713z" />
  </symbol>

  <symbol id="expand" viewBox="0 0 15 15">
    <path fill="none" stroke="#535353" d="M.5.5h14v14H.5z"/>
  </symbol>

  <symbol id="line" viewBox="0 0 42 42">
    <path d="M0 20h42v2H0z"/>
  </symbol>

  <symbol id="username" viewBox="0 0 1024 1024">
    <path d="M512.009 558.532c-129.61 0-234.676-104.217-234.676-232.737 0-128.567 105.065-232.719 234.676-232.719 129.59 0 234.657 104.217 234.657 232.719 0 128.581-105.065 232.737-234.657 232.737zm0-558.532C330.581 0 183.474 145.86 183.474 325.863c0 179.939 147.06 325.794 328.535 325.794S840.472 505.8 840.472 325.863C840.473 145.86 693.424 0 512.009 0zm0 558.532c-259.248 0-469.346 208.386-469.346 465.468h93.873c0-205.605 168.108-372.343 375.473-372.343 207.35 0 375.454 166.739 375.454 372.343h93.873c0-257.08-210.092-465.468-469.327-465.468zm0 0"/>
  </symbol>

  <symbol id="password" viewBox="0 0 1024 1024">
    <path d="M827.7 462.029l-543.745-.973c-.256-73.523-19.968-187.494 42.65-256.666 38.041-42.188 102.195-85.504 170.65-85.504 101.12 0 176.742 76.442 213.35 171.008 10.7 27.341 20.07 42.036 42.7 42.855 56.73 1.74 53.249-58.266 42.65-85.555C743.065 110.54 643.891 33.28 497.255 33.28c-99.585 0-154.471 20.48-213.3 85.555-90.01 99.43-85.606 260.199-85.35 342.221l-31.744.973c-29.696 0-53.607 23.757-53.607 52.992v449.075c0 29.44 24.013 53.146 53.607 53.146h660.787c29.594 0 53.606-23.706 53.606-53.146V515.072a53.248 53.248 0 0 0-53.555-53.043zm-30.414 426.496a40.96 40.96 0 0 1-12.544 30.361 41.114 41.114 0 0 1-30.208 12.544H241.51a40.704 40.704 0 0 1-30.208-12.544 41.42 41.42 0 0 1-12.544-30.31V588.544c0-23.603 19.15-42.803 42.752-42.803h513.024c23.552 0 42.752 19.2 42.752 42.803v300.032z" />
  </symbol>

  <symbol id="emoji" viewBox="0 0 1024 1024">
    <path d="M512 52.096c253.586 0 459.886 206.318 459.886 459.886 0 253.604-206.3 459.922-459.886 459.922C258.414 971.886 52.114 765.586 52.114 512 52.114 258.377 258.395 52.096 512 52.096zM0 512c0 282.77 229.23 512 512 512s512-229.23 512-512S794.77 0 512 0 0 229.23 0 512zm293.303-97.957a67.291 67.291 0 1 0 134.583 0 67.291 67.291 0 0 0-134.583 0zm302.811 0a67.291 67.291 0 1 0 134.583 0 67.291 67.291 0 0 0-134.583 0zm97.006 217.088a26.039 26.039 0 0 1 22.016 39.918 239.835 239.835 0 0 1-204.069 112.786c-81.737 0-157.257-40.96-201.984-109.531a26.057 26.057 0 0 1 43.648-28.453 188.434 188.434 0 0 0 158.355 85.888c65.298 0 125.11-33.042 159.963-88.43 4.937-7.862 13.404-12.178 22.071-12.178z" />
  </symbol>
  
  <symbol id="photo" viewBox="0 0 1024 1024">
    <path d="M176.958 959.38c-62.301 0-113.086-50.687-113.209-112.99l-1.31-668.609c-.059-30.137 11.69-58.562 33.081-80.038 21.391-21.475 49.77-33.335 79.907-33.393l670.269-1.313c62.301 0 113.086 50.686 113.207 112.988l1.31 668.609c.06 30.137-11.688 58.563-33.08 80.038-21.392 21.475-49.77 33.335-79.908 33.393l-670.267 1.314zm668.739-854.858h-.143l-670.046 1.312c-19.056.037-37.026 7.562-50.597 21.186-13.57 13.625-21.024 31.623-20.987 50.68l1.31 668.609c.078 39.472 32.253 71.585 71.724 71.585h.142l670.047-1.314c19.057-.036 37.025-7.56 50.596-21.184s21.025-31.623 20.987-50.68l-1.31-668.61c-.077-39.472-32.251-71.584-71.723-71.584z"/><path d="M924.312 580.792c-220.626-235.24-591.5-247.133-826.743-26.506l-28.379-30.26c61.723-57.886 132.907-101.958 211.575-130.987 75.986-28.04 155.723-40.94 236.999-38.331 81.275 2.605 160.023 20.583 234.058 53.434 76.646 34.01 144.862 82.549 202.75 144.272l-30.26 28.378z"/><path d="M511.328 813.366c-84.943 0-154.05-69.106-154.05-154.05s69.107-154.05 154.05-154.05 154.049 69.107 154.049 154.05-69.106 154.05-154.049 154.05zm0-266.615c-62.068 0-112.565 50.498-112.565 112.565 0 62.069 50.497 112.566 112.565 112.566s112.565-50.497 112.565-112.566c0-62.067-50.497-112.565-112.565-112.565zM723.658 246.448a52.772 52.772 0 1 0 108.004 0 52.772 52.772 0 1 0-108.004 0z"/>
  </symbol>

  <symbol id="history" viewBox="0 0 1024 1024">
    <!-- <path d="M960 511.13a32 32 0 0 0-64 0.12v0.75c0 212.08-171.92 384-384 384S128 724.08 128 512s171.92-384 384-384c128.48 0 242.21 63.1 311.92 160H768a32 32 0 0 0 0 64h112a32 32 0 0 0 32-32V176a32 32 0 0 0-64 0v39.69C765.91 122.67 645.81 64 512 64 264.58 64 64 264.58 64 512s200.58 448 448 448 448-200.58 448-448v-0.87z" ></path><path d="M720 544a32 32 0 0 0-32-32H512V336a32 32 0 0 0-32-32 32 32 0 0 0-32 32v208a32 32 0 0 0 32 32h208a32 32 0 0 0 32-32z" > -->
    <path d="M512 928a31.912 31.912 0 0 1-22.624-9.376l-96-96c-12.512-12.512-12.512-32.736 0-45.248s32.736-12.512 45.248 0L512 850.752l73.376-73.376C591.36 771.36 599.488 768 608 768h224c17.664 0 32-14.336 32-32V224c0-17.632-14.336-32-32-32H192c-17.632 0-32 14.368-32 32v512c0 17.664 14.368 32 32 32h96c17.664 0 32 14.304 32 32s-14.336 32-32 32h-96c-52.928 0-96-43.072-96-96V224c0-52.928 43.072-96 96-96h640c52.928 0 96 43.072 96 96v512c0 52.928-43.072 96-96 96H621.248l-86.624 86.624A31.912 31.912 0 0 1 512 928z"/><path d="M336 512c-26.464 0-48-21.536-48-48s21.536-48 48-48 48 21.536 48 48-21.536 48-48 48zm192 0c-26.464 0-48-21.536-48-48s21.536-48 48-48 48 21.536 48 48-21.536 48-48 48zm192 0c-26.464 0-48-21.536-48-48s21.536-48 48-48 48 21.536 48 48-21.536 48-48 48z"/>
  </symbol>

  <symbol id="message" viewBox="0 0 1024 1024">
    <path d="M512 928a31.912 31.912 0 0 1-22.624-9.376l-96-96c-12.512-12.512-12.512-32.736 0-45.248s32.736-12.512 45.248 0L512 850.752l73.376-73.376C591.36 771.36 599.488 768 608 768h224c17.664 0 32-14.336 32-32V224c0-17.632-14.336-32-32-32H192c-17.632 0-32 14.368-32 32v512c0 17.664 14.368 32 32 32h96c17.664 0 32 14.304 32 32s-14.336 32-32 32h-96c-52.928 0-96-43.072-96-96V224c0-52.928 43.072-96 96-96h640c52.928 0 96 43.072 96 96v512c0 52.928-43.072 96-96 96H621.248l-86.624 86.624A31.912 31.912 0 0 1 512 928z"/><path d="M336 512c-26.464 0-48-21.536-48-48s21.536-48 48-48 48 21.536 48 48-21.536 48-48 48zm192 0c-26.464 0-48-21.536-48-48s21.536-48 48-48 48 21.536 48 48-21.536 48-48 48zm192 0c-26.464 0-48-21.536-48-48s21.536-48 48-48 48 21.536 48 48-21.536 48-48 48z"/>
  </symbol>

</svg>
